<mxfile host="app.diagrams.net" modified="2021-10-26T09:28:30.280Z" agent="5.0 (Windows NT 10.0; Win64; x64) AppleWebKit/537.36 (KHTML, like Gecko) Chrome/95.0.4638.54 Safari/537.36" etag="h8flqj4yL_0S927-drc_" version="15.5.9" type="github">
  <diagram name="Page-1" id="bfe91b75-5d2c-26a0-9c1d-138518896778">
    <mxGraphModel dx="2031" dy="1134" grid="1" gridSize="10" guides="1" tooltips="1" connect="1" arrows="1" fold="1" page="1" pageScale="1" pageWidth="1100" pageHeight="850" background="none" math="0" shadow="0">
      <root>
        <mxCell id="0" />
        <mxCell id="1" parent="0" />
        <mxCell id="vjdP-wP4zrqszzpj86Aj-1" value="&lt;b&gt;&lt;font style=&quot;font-size: 22px&quot; color=&quot;#1a1a1a&quot;&gt;西红门机房&lt;br&gt;业务网络&lt;/font&gt;&lt;/b&gt;" style="html=1;outlineConnect=0;fillColor=#CCCCCC;strokeColor=#6881B3;gradientColor=none;gradientDirection=north;strokeWidth=2;shape=mxgraph.networks.cloud;fontColor=#ffffff;" vertex="1" parent="1">
          <mxGeometry x="187" y="125" width="216" height="120" as="geometry" />
        </mxCell>
        <mxCell id="vjdP-wP4zrqszzpj86Aj-2" value="&lt;font size=&quot;1&quot; color=&quot;#1a1a1a&quot;&gt;&lt;b style=&quot;font-size: 22px&quot;&gt;硅谷机房&lt;br&gt;业务网络&lt;/b&gt;&lt;/font&gt;" style="html=1;outlineConnect=0;fillColor=#CCCCCC;strokeColor=#6881B3;gradientColor=none;gradientDirection=north;strokeWidth=2;shape=mxgraph.networks.cloud;fontColor=#ffffff;" vertex="1" parent="1">
          <mxGeometry x="660" y="120" width="225" height="125" as="geometry" />
        </mxCell>
        <mxCell id="vjdP-wP4zrqszzpj86Aj-3" value="&lt;font style=&quot;font-size: 18px&quot;&gt;&lt;b&gt;管理区防火墙&lt;/b&gt;&lt;/font&gt;" style="fontColor=#0066CC;verticalAlign=top;verticalLabelPosition=bottom;labelPosition=center;align=center;html=1;outlineConnect=0;fillColor=#CCCCCC;strokeColor=#6881B3;gradientColor=none;gradientDirection=north;strokeWidth=2;shape=mxgraph.networks.firewall;" vertex="1" parent="1">
          <mxGeometry x="245" y="345" width="100" height="100" as="geometry" />
        </mxCell>
        <mxCell id="vjdP-wP4zrqszzpj86Aj-5" value="" style="fontColor=#0066CC;verticalAlign=top;verticalLabelPosition=bottom;labelPosition=center;align=center;html=1;outlineConnect=0;fillColor=#CCCCCC;strokeColor=#6881B3;gradientColor=none;gradientDirection=north;strokeWidth=2;shape=mxgraph.networks.switch;" vertex="1" parent="1">
          <mxGeometry x="245" y="495" width="100" height="30" as="geometry" />
        </mxCell>
        <mxCell id="vjdP-wP4zrqszzpj86Aj-6" value="&lt;b&gt;&lt;font style=&quot;font-size: 18px&quot;&gt;IT资产管理系统&lt;/font&gt;&lt;/b&gt;" style="fontColor=#0066CC;verticalAlign=top;verticalLabelPosition=bottom;labelPosition=center;align=center;html=1;outlineConnect=0;fillColor=#CCCCCC;strokeColor=#6881B3;gradientColor=none;gradientDirection=north;strokeWidth=2;shape=mxgraph.networks.virtual_server;" vertex="1" parent="1">
          <mxGeometry x="140" y="575" width="110" height="120" as="geometry" />
        </mxCell>
        <mxCell id="vjdP-wP4zrqszzpj86Aj-7" value="&lt;font style=&quot;font-size: 18px&quot;&gt;&lt;b&gt;IT资产探针&lt;/b&gt;&lt;/font&gt;" style="fontColor=#0066CC;verticalAlign=top;verticalLabelPosition=bottom;labelPosition=center;align=center;html=1;outlineConnect=0;fillColor=#CCCCCC;strokeColor=#6881B3;gradientColor=none;gradientDirection=north;strokeWidth=2;shape=mxgraph.networks.virtual_server;" vertex="1" parent="1">
          <mxGeometry x="345" y="575" width="110" height="120" as="geometry" />
        </mxCell>
        <mxCell id="vjdP-wP4zrqszzpj86Aj-10" value="" style="endArrow=classic;startArrow=classic;html=1;rounded=0;strokeColor=default;exitX=0.5;exitY=1;exitDx=0;exitDy=0;exitPerimeter=0;entryX=0.5;entryY=0;entryDx=0;entryDy=0;entryPerimeter=0;" edge="1" parent="1" source="vjdP-wP4zrqszzpj86Aj-3" target="vjdP-wP4zrqszzpj86Aj-5">
          <mxGeometry width="50" height="50" relative="1" as="geometry">
            <mxPoint x="410" y="315" as="sourcePoint" />
            <mxPoint x="460" y="265" as="targetPoint" />
          </mxGeometry>
        </mxCell>
        <mxCell id="vjdP-wP4zrqszzpj86Aj-11" value="" style="endArrow=classic;startArrow=classic;html=1;rounded=0;strokeColor=default;exitX=0.5;exitY=0;exitDx=0;exitDy=0;exitPerimeter=0;" edge="1" parent="1" source="vjdP-wP4zrqszzpj86Aj-3" target="vjdP-wP4zrqszzpj86Aj-1">
          <mxGeometry width="50" height="50" relative="1" as="geometry">
            <mxPoint x="410" y="315" as="sourcePoint" />
            <mxPoint x="460" y="265" as="targetPoint" />
          </mxGeometry>
        </mxCell>
        <mxCell id="vjdP-wP4zrqszzpj86Aj-12" value="" style="endArrow=classic;startArrow=classic;html=1;rounded=0;strokeColor=default;exitX=0.1;exitY=1;exitDx=0;exitDy=0;exitPerimeter=0;entryX=0.5;entryY=0;entryDx=0;entryDy=0;entryPerimeter=0;" edge="1" parent="1" source="vjdP-wP4zrqszzpj86Aj-5" target="vjdP-wP4zrqszzpj86Aj-6">
          <mxGeometry width="50" height="50" relative="1" as="geometry">
            <mxPoint x="410" y="315" as="sourcePoint" />
            <mxPoint x="460" y="265" as="targetPoint" />
          </mxGeometry>
        </mxCell>
        <mxCell id="vjdP-wP4zrqszzpj86Aj-13" value="" style="endArrow=classic;startArrow=classic;html=1;rounded=0;strokeColor=default;exitX=0.9;exitY=1;exitDx=0;exitDy=0;exitPerimeter=0;entryX=0.5;entryY=0;entryDx=0;entryDy=0;entryPerimeter=0;" edge="1" parent="1" source="vjdP-wP4zrqszzpj86Aj-5" target="vjdP-wP4zrqszzpj86Aj-7">
          <mxGeometry width="50" height="50" relative="1" as="geometry">
            <mxPoint x="410" y="315" as="sourcePoint" />
            <mxPoint x="460" y="265" as="targetPoint" />
          </mxGeometry>
        </mxCell>
        <mxCell id="vjdP-wP4zrqszzpj86Aj-14" value="" style="endArrow=classic;startArrow=classic;html=1;rounded=0;strokeColor=default;exitX=0.91;exitY=0.5;exitDx=0;exitDy=0;exitPerimeter=0;entryX=0.06;entryY=0.5;entryDx=0;entryDy=0;entryPerimeter=0;" edge="1" parent="1" source="vjdP-wP4zrqszzpj86Aj-1" target="vjdP-wP4zrqszzpj86Aj-2">
          <mxGeometry width="50" height="50" relative="1" as="geometry">
            <mxPoint x="470" y="205" as="sourcePoint" />
            <mxPoint x="520" y="155" as="targetPoint" />
          </mxGeometry>
        </mxCell>
      </root>
    </mxGraphModel>
  </diagram>
</mxfile>
